<svg width="300" height="402" viewBox="0 0 300 402" fill="none" xmlns="http://www.w3.org/2000/svg">
<path fill-rule="evenodd" clip-rule="evenodd" d="M72 212.786V229.143L55.6438 220.964L72 212.786Z" fill="#1F458A"/>
<path fill-rule="evenodd" clip-rule="evenodd" d="M55.6438 171.857L88.3562 188.248V204.57L55.6438 188.213V171.857Z" fill="#1F458A"/>
<path fill-rule="evenodd" clip-rule="evenodd" d="M55.6438 220.965L88.3562 204.574V188.252L55.6438 204.608V220.965Z" fill="#234F9D"/>
<path d="M119.393 191.652V208.5H115.289V198.396L111.521 208.5H108.209L104.417 198.372V208.5H100.313V191.652H105.161L109.889 203.316L114.569 191.652H119.393ZM137.024 195.108L128.624 214.86H124.208L127.28 208.044L121.832 195.108H126.416L129.512 203.484L132.584 195.108H137.024Z" fill="#404040"/>
<path d="M143.612 191.652V208.5H139.508V191.652H143.612ZM162.658 208.5H158.554L151.69 198.108V208.5H147.586V191.652H151.69L158.554 202.092V191.652H162.658V208.5ZM182.449 191.652L176.473 208.5H171.337L165.361 191.652H169.729L173.905 204.372L178.105 191.652H182.449ZM193.133 208.668C191.549 208.668 190.093 208.3 188.765 207.564C187.453 206.828 186.405 205.804 185.621 204.492C184.853 203.164 184.469 201.676 184.469 200.028C184.469 198.38 184.853 196.9 185.621 195.588C186.405 194.276 187.453 193.252 188.765 192.516C190.093 191.78 191.549 191.412 193.133 191.412C194.717 191.412 196.165 191.78 197.477 192.516C198.805 193.252 199.845 194.276 200.597 195.588C201.365 196.9 201.749 198.38 201.749 200.028C201.749 201.676 201.365 203.164 200.597 204.492C199.829 205.804 198.789 206.828 197.477 207.564C196.165 208.3 194.717 208.668 193.133 208.668ZM193.133 204.924C194.477 204.924 195.549 204.476 196.349 203.58C197.165 202.684 197.573 201.5 197.573 200.028C197.573 198.54 197.165 197.356 196.349 196.476C195.549 195.58 194.477 195.132 193.133 195.132C191.773 195.132 190.685 195.572 189.869 196.452C189.069 197.332 188.669 198.524 188.669 200.028C188.669 201.516 189.069 202.708 189.869 203.604C190.685 204.484 191.773 204.924 193.133 204.924ZM209.136 191.652V208.5H205.032V191.652H209.136ZM212.414 200.052C212.414 198.388 212.774 196.908 213.494 195.612C214.214 194.3 215.214 193.284 216.494 192.564C217.79 191.828 219.254 191.46 220.886 191.46C222.886 191.46 224.598 191.988 226.022 193.044C227.446 194.1 228.398 195.54 228.878 197.364H224.366C224.03 196.66 223.55 196.124 222.926 195.756C222.318 195.388 221.622 195.204 220.838 195.204C219.574 195.204 218.55 195.644 217.766 196.524C216.982 197.404 216.59 198.58 216.59 200.052C216.59 201.524 216.982 202.7 217.766 203.58C218.55 204.46 219.574 204.9 220.838 204.9C221.622 204.9 222.318 204.716 222.926 204.348C223.55 203.98 224.03 203.444 224.366 202.74H228.878C228.398 204.564 227.446 206.004 226.022 207.06C224.598 208.1 222.886 208.62 220.886 208.62C219.254 208.62 217.79 208.26 216.494 207.54C215.214 206.804 214.214 205.788 213.494 204.492C212.774 203.196 212.414 201.716 212.414 200.052ZM236.495 194.94V198.348H241.991V201.516H236.495V205.212H242.711V208.5H232.391V191.652H242.711V194.94H236.495Z" fill="#234F9D"/>
</svg>
