<svg width="250" height="250" viewBox="0 0 250 250" fill="none" xmlns="http://www.w3.org/2000/svg">
<path d="M233.445 158.1H151.5V110.68H233.445V158.1ZM152 157.6H232.945V111.18H152V157.6Z" fill="#E0E0E0"/>
<path d="M216.54 135.965H162.475V137.55H216.54V135.965Z" fill="#F0F0F0"/>
<path d="M220.265 141.875H162.475V143.605H220.265V141.875Z" fill="#F0F0F0"/>
<path d="M220.265 147.855H162.475V149.585H220.265V147.855Z" fill="#F0F0F0"/>
<path d="M181.37 127.38H162.475V131.495H181.37V127.38Z" fill="#F0F0F0"/>
<path d="M233.195 110.93H151.765V118.48H233.195V110.93Z" fill="#E0E0E0"/>
<path d="M226.93 117.35C226.825 117.25 227.875 115.985 229.27 114.525C230.665 113.065 231.89 111.96 231.99 112.055C232.09 112.15 231.045 113.42 229.65 114.885C228.255 116.35 227.03 117.45 226.93 117.35Z" fill="white"/>
<path d="M232 117.35C231.9 117.45 230.68 116.35 229.28 114.885C227.88 113.42 226.835 112.155 226.94 112.055C227.045 111.955 228.26 113.055 229.66 114.525C231.06 115.995 232.095 117.25 232 117.35Z" fill="white"/>
<path d="M132.61 17.025H51.1797V63.95H132.61V17.025Z" fill="#E6E6E6"/>
<path d="M115.96 42.065H61.895V43.65H115.96V42.065Z" fill="#F0F0F0"/>
<path d="M119.685 47.975H61.895V49.705H119.685V47.975Z" fill="#F0F0F0"/>
<path d="M119.685 53.955H61.895V55.685H119.685V53.955Z" fill="#F0F0F0"/>
<path d="M80.79 33.48H61.895V37.595H80.79V33.48Z" fill="#F0F0F0"/>
<path d="M132.61 17.025H51.1797V24.575H132.61V17.025Z" fill="#E0E0E0"/>
<path d="M126.07 23.4101C125.965 23.3151 127.015 22.0451 128.41 20.5851C129.805 19.1251 131.03 18.0201 131.13 18.1201C131.23 18.2201 130.185 19.4851 128.79 20.9451C127.395 22.4051 126.17 23.5001 126.07 23.4101Z" fill="white"/>
<path d="M131.13 23.41C131.03 23.51 129.81 22.41 128.41 20.945C127.01 19.48 125.965 18.22 126.07 18.12C126.175 18.02 127.39 19.12 128.79 20.585C130.19 22.05 131.235 23.315 131.13 23.41Z" fill="white"/>
<path d="M101.77 104.195H19.8398V56.77H101.77V104.195ZM20.3398 103.695H101.27V57.27H20.3398V103.695Z" fill="#E0E0E0"/>
<path d="M84.8697 82.06H30.8047V83.645H84.8697V82.06Z" fill="#F0F0F0"/>
<path d="M88.5947 87.97H30.8047V89.7H88.5947V87.97Z" fill="#F0F0F0"/>
<path d="M88.5947 93.95H30.8047V95.68H88.5947V93.95Z" fill="#F0F0F0"/>
<path d="M49.6997 73.475H30.8047V77.59H49.6997V73.475Z" fill="#F0F0F0"/>
<path d="M101.52 57.02H20.0898V64.57H101.52V57.02Z" fill="#E0E0E0"/>
<path d="M196.325 115.06H100.175V201.14H196.325V115.06Z" fill="#E6E6E6"/>
<path d="M105.01 87.945H29.6899V166.2H105.01V87.945Z" fill="#F0F0F0"/>
<path d="M105.01 87.945H29.6899V96.47H105.01V87.945Z" fill="#E0E0E0"/>
<path d="M35.9099 92.12C35.8962 92.4292 35.792 92.7275 35.6103 92.9779C35.4285 93.2284 35.1773 93.42 34.8876 93.5289C34.598 93.6378 34.2827 93.6593 33.981 93.5907C33.6793 93.522 33.4043 93.3663 33.1903 93.1428C32.9763 92.9193 32.8326 92.6379 32.7771 92.3334C32.7216 92.029 32.7567 91.715 32.8781 91.4303C32.9994 91.1457 33.2017 90.9029 33.4598 90.7322C33.7179 90.5615 34.0205 90.4703 34.3299 90.47C34.7578 90.4805 35.1642 90.66 35.4603 90.9691C35.7563 91.2783 35.918 91.6921 35.9099 92.12V92.12Z" fill="white"/>
<path d="M42.3249 92.12C42.3122 92.4306 42.2084 92.7306 42.0264 92.9827C41.8445 93.2348 41.5924 93.4278 41.3016 93.5377C41.0108 93.6476 40.6941 93.6695 40.3909 93.6008C40.0878 93.5321 39.8115 93.3758 39.5965 93.1512C39.3815 92.9267 39.2372 92.6439 39.1817 92.338C39.1262 92.0322 39.1619 91.7167 39.2843 91.431C39.4067 91.1452 39.6104 90.9017 39.8701 90.7309C40.1298 90.56 40.434 90.4693 40.7449 90.47C41.1728 90.4805 41.5792 90.66 41.8753 90.9691C42.1713 91.2783 42.333 91.6921 42.3249 92.12V92.12Z" fill="white"/>
<path d="M48.74 92.12C48.7272 92.4306 48.6234 92.7306 48.4414 92.9827C48.2595 93.2348 48.0074 93.4278 47.7166 93.5377C47.4259 93.6476 47.1092 93.6695 46.806 93.6008C46.5028 93.5321 46.2265 93.3758 46.0115 93.1512C45.7965 92.9267 45.6523 92.6439 45.5968 92.338C45.5413 92.0322 45.5769 91.7167 45.6993 91.431C45.8217 91.1452 46.0254 90.9017 46.2852 90.7309C46.5449 90.56 46.8491 90.4693 47.16 90.47C47.5879 90.4805 47.9943 90.66 48.2903 90.9691C48.5864 91.2783 48.748 91.6921 48.74 92.12V92.12Z" fill="white"/>
<path d="M222.69 34.14H126.54V129.97H222.69V34.14Z" fill="#F0F0F0"/>
<path d="M222.69 34.14H126.54V45.365H222.69V34.14Z" fill="#E0E0E0"/>
<path d="M134.73 39.64C134.712 40.0481 134.575 40.442 134.336 40.7729C134.096 41.1037 133.765 41.3569 133.383 41.501C133 41.6451 132.584 41.6737 132.186 41.5834C131.788 41.4931 131.425 41.2877 131.142 40.9929C130.859 40.698 130.669 40.3266 130.596 39.9248C130.523 39.523 130.569 39.1085 130.729 38.7327C130.889 38.357 131.156 38.0365 131.497 37.8111C131.837 37.5858 132.237 37.4654 132.645 37.465C133.21 37.4781 133.746 37.7144 134.137 38.122C134.527 38.5296 134.741 39.0755 134.73 39.64V39.64Z" fill="white"/>
<path d="M142.565 38.17C142.842 38.471 143.025 38.847 143.09 39.251C143.155 39.655 143.1 40.0692 142.931 40.442C142.762 40.8148 142.487 41.1297 142.141 41.3475C141.795 41.5653 141.392 41.6764 140.983 41.6668C140.574 41.6573 140.176 41.5276 139.84 41.2938C139.505 41.0601 139.245 40.7327 139.094 40.3525C138.943 39.9722 138.907 39.5558 138.99 39.1553C139.074 38.7548 139.274 38.3878 139.565 38.1C139.973 37.7122 140.517 37.5019 141.08 37.515C141.642 37.5281 142.176 37.7637 142.565 38.17V38.17Z" fill="white"/>
<path d="M151.62 39.64C151.602 40.0481 151.465 40.442 151.225 40.7729C150.986 41.1037 150.654 41.3569 150.272 41.501C149.89 41.6451 149.474 41.6737 149.076 41.5834C148.677 41.4931 148.314 41.2877 148.032 40.9929C147.749 40.698 147.559 40.3266 147.486 39.9248C147.412 39.523 147.458 39.1085 147.619 38.7327C147.779 38.357 148.046 38.0365 148.386 37.8111C148.727 37.5858 149.126 37.4654 149.535 37.465C150.099 37.4781 150.636 37.7144 151.026 38.122C151.417 38.5296 151.63 39.0755 151.62 39.64V39.64Z" fill="white"/>
<path d="M201.92 226.565C201.92 226.635 167.2 226.695 124.385 226.695C81.57 226.695 46.835 226.635 46.835 226.565C46.835 226.495 81.55 226.435 124.385 226.435C167.22 226.435 201.92 226.5 201.92 226.565Z" fill="#263238"/>
<path d="M168.09 165.355C160.365 159.96 158.615 149.945 158.92 140.94C158.97 139.44 158.805 137.85 159.52 136.535C160.235 135.22 161.905 134.315 163.25 134.945C164.365 135.47 164.85 136.77 165.475 137.845C166.309 139.277 167.531 140.443 169 141.21C169.955 141.71 171.14 142.01 172.085 141.49C173.385 140.775 173.535 138.99 173.525 137.49C173.525 134.7 173.509 131.913 173.475 129.13C173.385 127.635 173.537 126.136 173.925 124.69C174.39 123.27 175.425 121.955 176.84 121.555C178.255 121.155 180.02 121.98 180.34 123.44C180.395 124.058 180.41 124.68 180.385 125.3C180.425 125.925 180.715 126.61 181.3 126.8C181.885 126.99 182.495 126.555 182.945 126.115C184.485 124.615 185.535 122.66 186.51 120.73C187.485 118.8 188.44 116.815 189.84 115.17C191.24 113.525 193.175 112.22 195.34 112.095C197.505 111.97 199.76 113.3 200.3 115.4C200.84 117.5 199.615 119.645 198.3 121.35C196.316 123.881 193.977 126.112 191.355 127.975C190.843 128.254 190.435 128.691 190.19 129.22C189.865 130.22 190.81 131.22 191.795 131.535C192.91 131.905 194.12 131.79 195.295 131.93C196.47 132.07 197.72 132.58 198.165 133.68C198.775 135.21 197.495 136.81 196.24 137.86C193.72 139.96 190.859 141.612 187.78 142.745C186.68 143.145 185.525 143.5 184.635 144.27C183.745 145.04 183.215 146.385 183.75 147.44C184.285 148.495 185.66 148.83 186.815 148.615C187.97 148.4 188.995 147.78 190.095 147.365C192.15 146.59 194.8 146.73 196.095 148.505C196.496 149.116 196.75 149.813 196.837 150.539C196.924 151.265 196.841 152.001 196.595 152.69C196.095 154.061 195.325 155.317 194.33 156.385C191.055 160.298 186.8 163.271 182 165C177.235 166.65 172.82 167.1 168.085 165.365" fill="#122750"/>
<path d="M198.1 113.33C198.1 113.33 198.055 113.38 197.955 113.47L197.51 113.865C197.12 114.215 196.545 114.725 195.82 115.4C193.765 117.309 191.856 119.369 190.11 121.565C188.995 122.95 187.84 124.52 186.61 126.225C185.38 127.93 184.11 129.77 182.85 131.725C181.507 133.787 180.277 135.92 179.165 138.115C178.585 139.26 178.075 140.455 177.55 141.675L176 145.4C173.957 150.092 172.178 154.895 170.67 159.785C169.456 163.786 168.619 167.893 168.17 172.05C167.88 174.856 167.833 177.681 168.03 180.495C168.11 181.495 168.185 182.26 168.255 182.78C168.285 183.03 168.305 183.23 168.325 183.375V183.58C168.304 183.515 168.289 183.448 168.28 183.38C168.255 183.235 168.225 183.04 168.185 182.79C168.095 182.29 168 181.5 167.91 180.5C167.669 177.681 167.686 174.846 167.96 172.03C168.381 167.855 169.2 163.729 170.405 159.71C171.9 154.806 173.675 149.991 175.72 145.29L177.31 141.58C177.835 140.365 178.35 139.16 178.935 138.01C180.055 135.808 181.295 133.67 182.65 131.605C183.93 129.605 185.22 127.795 186.435 126.105C187.65 124.415 188.825 122.835 189.935 121.455C191.699 119.265 193.633 117.219 195.72 115.335C196.46 114.67 197.05 114.17 197.45 113.835L197.915 113.46C197.972 113.41 198.034 113.367 198.1 113.33V113.33Z" fill="#263238"/>
<path d="M179 138C178.93 137.794 178.881 137.581 178.855 137.365C178.775 136.95 178.685 136.365 178.58 135.605C178.365 134.105 178.145 132.05 177.91 129.775C177.675 127.5 177.41 125.44 177.19 123.955C177.075 123.215 176.975 122.62 176.905 122.205C176.851 121.993 176.822 121.774 176.82 121.555C176.906 121.755 176.969 121.965 177.005 122.18C177.115 122.59 177.24 123.18 177.38 123.925C177.665 125.425 177.945 127.465 178.18 129.745C178.415 132.025 178.615 134.025 178.77 135.58C178.845 136.28 178.91 136.875 178.96 137.35C178.999 137.564 179.013 137.783 179 138V138Z" fill="#263238"/>
<path d="M198.24 134.41C197.997 134.463 197.749 134.493 197.5 134.5C197 134.545 196.29 134.605 195.41 134.705C193.65 134.895 191.23 135.245 188.575 135.745C185.92 136.245 183.535 136.81 181.82 137.245C180.965 137.465 180.275 137.665 179.82 137.8C179.577 137.886 179.326 137.947 179.07 137.98C179.301 137.864 179.542 137.768 179.79 137.695C180.26 137.53 180.94 137.3 181.79 137.055C183.495 136.555 185.88 135.96 188.545 135.45C190.803 135.018 193.081 134.701 195.37 134.5C196.255 134.425 196.97 134.395 197.47 134.385C197.727 134.368 197.985 134.376 198.24 134.41Z" fill="#263238"/>
<path d="M170.65 159.36C170.597 159.288 170.553 159.209 170.52 159.125L170.19 158.43C169.905 157.825 169.52 156.93 169.06 155.835C168.13 153.635 166.945 150.555 165.685 147.135C164.425 143.715 163.265 140.635 162.385 138.41C161.955 137.33 161.6 136.445 161.335 135.785L161.055 135.07C161.016 134.988 160.989 134.9 160.975 134.81C161.028 134.882 161.072 134.961 161.105 135.045L161.435 135.74C161.715 136.345 162.105 137.24 162.565 138.335C163.495 140.535 164.68 143.615 165.94 147.035C167.2 150.455 168.36 153.535 169.24 155.76C169.67 156.84 170.025 157.725 170.285 158.385C170.4 158.67 170.495 158.885 170.57 159.1C170.609 159.182 170.636 159.27 170.65 159.36V159.36Z" fill="#263238"/>
<path d="M196.19 151.125C196.11 151.171 196.024 151.206 195.935 151.23L195.195 151.48L192.46 152.365C190.15 153.115 186.96 154.185 183.46 155.365C179.96 156.545 176.755 157.595 174.43 158.295C173.27 158.65 172.325 158.92 171.67 159.1L170.915 159.295C170.827 159.323 170.737 159.341 170.645 159.35C170.725 159.304 170.811 159.269 170.9 159.245L171.64 158.995L174.375 158.11C176.685 157.36 179.875 156.29 183.375 155.11C186.875 153.93 190.075 152.88 192.4 152.18C193.565 151.825 194.505 151.555 195.165 151.375L195.92 151.18C196.008 151.152 196.098 151.134 196.19 151.125V151.125Z" fill="#263238"/>
<path d="M185.77 29.84L183.195 30.76L182.09 27.395C180.06 21.19 173.59 17.895 167.645 19.99C161.7 22.085 158.535 28.89 160.565 35.095L161.67 38.46L159.085 39.385C158.099 39.7673 157.299 40.5148 156.85 41.4721C156.401 42.4293 156.339 43.5227 156.675 44.525L163.84 66.42C163.989 66.9162 164.236 67.3774 164.566 67.7762C164.897 68.1751 165.304 68.5034 165.764 68.7417C166.224 68.9801 166.727 69.1235 167.243 69.1636C167.76 69.2037 168.279 69.1395 168.77 68.975L195.455 59.43C196.454 59.0483 197.266 58.2942 197.72 57.3263C198.174 56.3584 198.235 55.252 197.89 54.24L190.72 32.345C190.568 31.8502 190.317 31.3913 189.983 30.9955C189.649 30.5997 189.239 30.2753 188.777 30.0415C188.315 29.8077 187.811 29.6694 187.294 29.6347C186.777 29.6001 186.259 29.6699 185.77 29.84V29.84ZM165.43 33.34C164.883 31.7266 164.981 29.964 165.704 28.4214C166.428 26.8789 167.72 25.6761 169.31 25.065C170.095 24.7963 170.927 24.6886 171.755 24.7482C172.583 24.8078 173.39 25.0336 174.129 25.412C174.867 25.7905 175.522 26.3139 176.054 26.9509C176.586 27.588 176.984 28.3257 177.225 29.12L178.325 32.485L166.53 36.705L165.43 33.34ZM180.43 52.77L182.26 58.36C182.294 58.4721 182.283 58.5928 182.23 58.6971C182.177 58.8014 182.086 58.8812 181.975 58.92L179.41 59.835C179.308 59.8633 179.199 59.851 179.106 59.8007C179.013 59.7503 178.942 59.6659 178.91 59.565L177.065 54C176.048 53.9446 175.072 53.5797 174.267 52.9542C173.463 52.3287 172.869 51.4724 172.565 50.5C172.13 49.2145 172.21 47.8105 172.787 46.5822C173.363 45.3538 174.393 44.3963 175.66 43.91C176.286 43.6963 176.948 43.6107 177.607 43.6583C178.267 43.7059 178.91 43.8858 179.498 44.1872C180.086 44.4886 180.608 44.9054 181.032 45.4127C181.456 45.92 181.773 46.5074 181.965 47.14C182.287 48.1278 182.313 49.1879 182.042 50.1906C181.77 51.1933 181.212 52.0949 180.435 52.785L180.43 52.77Z" fill="#122750"/>
<path d="M183.08 30.7C183.08 30.77 178.305 32.565 172.365 34.7C166.425 36.835 161.58 38.55 161.555 38.5C161.53 38.45 166.33 36.64 172.275 34.5C178.22 32.36 183.055 30.635 183.08 30.7Z" fill="#263238"/>
<path d="M188.75 31.62C188.772 31.6634 188.791 31.7085 188.805 31.755C188.845 31.855 188.89 31.985 188.95 32.145C189.08 32.51 189.26 33.015 189.485 33.645L191.405 39.235C192.205 41.605 193.16 44.415 194.22 47.535C194.72 49.1 195.31 50.73 195.86 52.445C196.155 53.3288 196.282 54.2596 196.235 55.19C196.193 55.6738 196.055 56.1445 195.83 56.575C195.59 57.004 195.269 57.3826 194.885 57.69C194.113 58.2539 193.255 58.691 192.345 58.985L189.77 59.91L184.895 61.655L176.64 64.595L171.065 66.555L169.565 67.055L169.165 67.185C169.123 67.204 169.077 67.2158 169.03 67.22C169.03 67.22 169.07 67.22 169.155 67.16L169.545 67.005L171.045 66.44L176.59 64.4L184.83 61.4L189.695 59.64L192.27 58.71C193.155 58.428 193.987 58.0041 194.735 57.455C195.092 57.1698 195.391 56.8184 195.615 56.42C195.827 56.0219 195.955 55.5845 195.99 55.135C196.036 54.2386 195.914 53.3415 195.63 52.49C195.09 50.79 194.52 49.145 194.005 47.58C192.965 44.455 192.005 41.635 191.245 39.265C190.485 36.895 189.845 34.99 189.405 33.65C189.195 32.995 189.035 32.485 188.905 32.115L188.785 31.715C188.77 31.6847 188.758 31.6528 188.75 31.62V31.62Z" fill="#263238"/>
<path d="M174.67 24.725C174.67 24.725 174.405 24.595 173.915 24.395C173.217 24.1266 172.478 23.9779 171.73 23.955C170.622 23.917 169.519 24.1253 168.5 24.565C167.262 25.1125 166.203 25.998 165.445 27.12C164.682 28.2388 164.273 29.5609 164.27 30.915C164.281 32.0249 164.449 33.1276 164.77 34.19C165.03 35.1 165.3 35.825 165.48 36.33C165.586 36.5865 165.673 36.8506 165.74 37.12C165.598 36.8802 165.479 36.6274 165.385 36.365C165.18 35.865 164.885 35.155 164.595 34.24C164.239 33.1664 164.046 32.0458 164.02 30.915C164.007 29.5097 164.426 28.1343 165.22 26.975C166.005 25.8121 167.107 24.8991 168.395 24.345C169.445 23.9029 170.583 23.7079 171.72 23.775C172.484 23.8139 173.235 23.9918 173.935 24.3C174.123 24.3864 174.303 24.4867 174.475 24.6C174.546 24.6312 174.612 24.6734 174.67 24.725V24.725Z" fill="#263238"/>
<path d="M174.9 44.29C174.98 44.2417 175.064 44.1999 175.15 44.165C175.4 44.0521 175.66 43.9601 175.925 43.89C176.347 43.7656 176.781 43.6918 177.22 43.67C177.817 43.6379 178.414 43.7281 178.975 43.935C180.255 44.385 181.43 45.69 182.01 47.435C182.288 48.3715 182.288 49.3686 182.01 50.305C181.702 51.3214 181.149 52.2467 180.4 53L180.43 52.865C181.095 54.69 181.82 56.67 182.57 58.735L182.615 58.86L182.49 58.905L181.345 59.285L178.845 60.12L178.72 60.16L178.68 60.035C177.995 57.965 177.245 56.035 176.68 54.14L176.79 54.225C175.813 54.1438 174.881 53.7769 174.11 53.17C173.413 52.6331 172.841 51.9506 172.435 51.17C172.069 50.4778 171.886 49.703 171.905 48.92C171.928 48.1197 172.128 47.3345 172.49 46.6205C172.852 45.9065 173.368 45.2814 174 44.79C174.26 44.5788 174.552 44.4101 174.865 44.29C174.583 44.4576 174.309 44.6395 174.045 44.835C173.351 45.4225 172.819 46.1782 172.5 47.03C172.227 47.6723 172.099 48.3673 172.125 49.0649C172.152 49.7625 172.333 50.4456 172.655 51.065C173.055 51.8159 173.612 52.471 174.29 52.985C175.025 53.5619 175.914 53.9097 176.845 53.985H176.93L176.955 54.06C177.505 55.92 178.26 57.865 178.955 59.945L178.79 59.865L181.29 59.03L182.43 58.645L182.35 58.815C181.605 56.75 180.885 54.765 180.225 52.94V52.865L180.285 52.805C181.012 52.083 181.554 51.1962 181.865 50.22C182.13 49.3242 182.13 48.3708 181.865 47.475C181.32 45.795 180.195 44.52 178.975 44.07C178.435 43.8618 177.859 43.7648 177.28 43.785C176.848 43.7949 176.419 43.8536 176 43.96C175.255 44.145 174.905 44.315 174.9 44.29Z" fill="#263238"/>
<path d="M159.445 188.66L109.5 188.43C106.616 188.414 103.856 187.254 101.826 185.205C99.7962 183.155 98.6629 180.384 98.6749 177.5L99.2049 52.295C99.2108 50.866 99.4983 49.4522 100.051 48.1344C100.603 46.8166 101.41 45.6206 102.425 44.6148C103.441 43.609 104.644 42.8131 105.967 42.2727C107.29 41.7322 108.706 41.4577 110.135 41.465L160.075 41.695C162.959 41.7095 165.72 42.8683 167.75 44.9167C169.781 46.9651 170.916 49.7357 170.905 52.62L170.375 177.82C170.369 179.249 170.082 180.664 169.529 181.982C168.977 183.3 168.17 184.497 167.155 185.504C166.14 186.51 164.937 187.307 163.614 187.849C162.291 188.39 160.874 188.666 159.445 188.66V188.66Z" fill="#455A64"/>
<path d="M160 46H150.32C150.004 46.0058 149.693 46.0738 149.403 46.2001C149.114 46.3265 148.852 46.5086 148.633 46.7361C148.413 46.9636 148.241 47.2321 148.126 47.5261C148.01 47.8202 147.954 48.1341 147.96 48.45V50.205C147.966 50.5206 147.91 50.8342 147.794 51.128C147.679 51.4218 147.507 51.69 147.287 51.9171C147.068 52.1442 146.806 52.3258 146.517 52.4516C146.227 52.5773 145.916 52.6448 145.6 52.65L126.73 52.565C126.092 52.5479 125.486 52.2783 125.047 51.8152C124.607 51.352 124.369 50.7334 124.385 50.095V48.34C124.401 47.7024 124.164 47.0845 123.725 46.6215C123.287 46.1585 122.683 45.8883 122.045 45.87H118.64L110.165 45.83C108.149 45.818 106.211 46.6052 104.774 48.0193C103.338 49.4335 102.52 51.3592 102.5 53.375L102 175.585C101.995 176.585 102.188 177.576 102.566 178.502C102.945 179.427 103.502 180.269 104.206 180.98C104.91 181.69 105.746 182.255 106.669 182.642C107.591 183.029 108.58 183.23 109.58 183.235L159.42 183.465C160.421 183.47 161.413 183.277 162.339 182.898C163.265 182.52 164.108 181.962 164.819 181.258C165.529 180.554 166.094 179.716 166.482 178.793C166.869 177.871 167.07 176.881 167.075 175.88L167.575 53.67C167.587 51.6485 166.796 49.7051 165.375 48.2668C163.955 46.8285 162.021 46.0132 160 46V46Z" fill="white"/>
<path d="M153.295 167.16L116.235 167C115.85 167 115.54 166.58 115.545 166.07L115.585 156.375C115.585 155.875 115.9 155.445 116.285 155.445L153.345 155.615C153.558 155.652 153.749 155.77 153.878 155.944C154.006 156.118 154.063 156.335 154.035 156.55L154 166.235C154 166.75 153.68 167.165 153.295 167.16Z" fill="#122750"/>
<path d="M128.791 166.374C128.368 166.374 127.962 166.307 127.572 166.171C127.187 166.03 126.889 165.851 126.677 165.634L126.913 165.171C127.113 165.366 127.382 165.531 127.718 165.667C128.059 165.797 128.417 165.862 128.791 165.862C129.149 165.862 129.439 165.819 129.661 165.732C129.889 165.64 130.054 165.518 130.157 165.366C130.266 165.214 130.32 165.046 130.32 164.862C130.32 164.64 130.255 164.461 130.125 164.325C130 164.19 129.835 164.084 129.629 164.008C129.423 163.927 129.195 163.856 128.946 163.797C128.696 163.737 128.447 163.675 128.198 163.61C127.948 163.539 127.718 163.447 127.506 163.333C127.3 163.219 127.132 163.07 127.002 162.886C126.878 162.696 126.815 162.45 126.815 162.146C126.815 161.864 126.889 161.607 127.035 161.374C127.187 161.135 127.417 160.945 127.726 160.804C128.035 160.658 128.431 160.585 128.913 160.585C129.233 160.585 129.55 160.631 129.865 160.723C130.179 160.81 130.45 160.932 130.678 161.089L130.474 161.569C130.23 161.406 129.97 161.287 129.694 161.211C129.423 161.135 129.16 161.097 128.905 161.097C128.564 161.097 128.282 161.143 128.059 161.235C127.837 161.327 127.672 161.452 127.563 161.609C127.46 161.761 127.409 161.935 127.409 162.13C127.409 162.352 127.471 162.531 127.596 162.666C127.726 162.802 127.894 162.908 128.1 162.984C128.311 163.059 128.542 163.127 128.791 163.187C129.041 163.246 129.287 163.312 129.531 163.382C129.781 163.452 130.008 163.545 130.214 163.658C130.426 163.767 130.594 163.913 130.718 164.098C130.848 164.282 130.913 164.523 130.913 164.821C130.913 165.098 130.838 165.355 130.686 165.594C130.534 165.827 130.301 166.017 129.987 166.163C129.678 166.304 129.279 166.374 128.791 166.374ZM132.225 166.326V160.634H132.826V166.326H132.225ZM134.678 166.326V160.634H135.174L139.102 165.577H138.841V160.634H139.435V166.326H138.939L135.02 161.382H135.28V166.326H134.678ZM129.718 176.374C129.285 176.374 128.883 176.304 128.515 176.163C128.152 176.017 127.834 175.813 127.563 175.553C127.298 175.293 127.089 174.987 126.937 174.634C126.791 174.282 126.718 173.897 126.718 173.48C126.718 173.062 126.791 172.677 126.937 172.325C127.089 171.973 127.3 171.666 127.572 171.406C127.843 171.146 128.16 170.945 128.523 170.804C128.892 170.658 129.293 170.585 129.726 170.585C130.16 170.585 130.556 170.653 130.913 170.788C131.277 170.924 131.586 171.13 131.84 171.406L131.466 171.788C131.228 171.55 130.965 171.379 130.678 171.276C130.39 171.173 130.081 171.121 129.751 171.121C129.398 171.121 129.073 171.181 128.775 171.3C128.482 171.414 128.225 171.58 128.002 171.796C127.786 172.008 127.615 172.257 127.49 172.544C127.371 172.826 127.311 173.138 127.311 173.48C127.311 173.816 127.371 174.127 127.49 174.415C127.615 174.702 127.786 174.954 128.002 175.171C128.225 175.382 128.482 175.548 128.775 175.667C129.073 175.781 129.396 175.838 129.743 175.838C130.068 175.838 130.374 175.789 130.661 175.691C130.954 175.594 131.222 175.428 131.466 175.195L131.808 175.651C131.537 175.889 131.22 176.071 130.857 176.195C130.493 176.315 130.114 176.374 129.718 176.374ZM131.231 175.577V173.48H131.808V175.651L131.231 175.577ZM129.515 186.374C128.789 186.374 128.217 186.166 127.799 185.748C127.382 185.331 127.173 184.713 127.173 183.894V180.634H127.775V183.87C127.775 184.542 127.927 185.038 128.23 185.358C128.534 185.678 128.962 185.838 129.515 185.838C130.073 185.838 130.504 185.678 130.808 185.358C131.111 185.038 131.263 184.542 131.263 183.87V180.634H131.849V183.894C131.849 184.713 131.64 185.331 131.222 185.748C130.81 186.166 130.241 186.374 129.515 186.374ZM133.662 186.326V180.634H135.792C136.275 180.634 136.689 180.712 137.036 180.869C137.383 181.021 137.649 181.243 137.833 181.536C138.023 181.823 138.118 182.173 138.118 182.585C138.118 182.986 138.023 183.333 137.833 183.626C137.649 183.913 137.383 184.135 137.036 184.293C136.689 184.45 136.275 184.528 135.792 184.528H133.995L134.264 184.244V186.326H133.662ZM134.264 184.293L133.995 184H135.776C136.345 184 136.776 183.878 137.069 183.634C137.367 183.385 137.516 183.035 137.516 182.585C137.516 182.13 137.367 181.777 137.069 181.528C136.776 181.279 136.345 181.154 135.776 181.154H133.995L134.264 180.869V184.293Z" fill="#E8E8E3"/>
<path d="M123.627 81.9251L110.767 81.8667L110.756 84.2267L123.616 84.285L123.627 81.9251Z" fill="#122750"/>
<path opacity="0.1" d="M123.627 81.9251L110.767 81.8667L110.756 84.2267L123.616 84.285L123.627 81.9251Z" fill="black"/>
<path d="M161.325 96.415C161.426 96.4048 161.525 96.3812 161.62 96.345C161.758 96.2909 161.879 96.1988 161.967 96.0794C162.056 95.9601 162.108 95.8181 162.12 95.67C162.12 94.875 162.12 93.715 162.12 92.225C162.12 91.48 162.12 90.645 162.12 89.725C162.12 89.5 162.12 89.265 162.12 89.03C162.153 88.802 162.103 88.5698 161.98 88.375C161.911 88.2816 161.822 88.2054 161.718 88.1525C161.615 88.0996 161.501 88.0713 161.385 88.07H160.605H153.38L111.56 87.915C111.453 87.9132 111.347 87.9372 111.251 87.9851C111.155 88.033 111.073 88.1033 111.01 88.19C110.889 88.3856 110.843 88.6181 110.88 88.845C110.88 89.345 110.88 89.845 110.88 90.345C110.88 91.345 110.88 92.345 110.88 93.345C110.88 93.845 110.88 94.345 110.88 94.845C110.859 95.0779 110.859 95.3121 110.88 95.545C110.906 95.6448 110.955 95.7373 111.023 95.8153C111.09 95.8933 111.175 95.9548 111.27 95.995C111.368 96.0342 111.474 96.0529 111.58 96.05H114.125L125.23 96.11L144.03 96.225L156.705 96.325L160.15 96.365H161.045C161.25 96.365 161.35 96.365 161.35 96.365H161.045H160.15H156.705H144.03L125.23 96.305L114.125 96.26H111.58C111.44 96.2657 111.3 96.2418 111.17 96.19C111.038 96.1338 110.921 96.0483 110.828 95.94C110.734 95.8317 110.666 95.7034 110.63 95.565C110.601 95.4338 110.591 95.2991 110.6 95.165V94.795C110.6 94.295 110.6 93.795 110.6 93.295C110.6 92.295 110.6 91.295 110.6 90.295C110.6 89.795 110.6 89.295 110.6 88.795C110.59 88.6618 110.59 88.5281 110.6 88.395C110.619 88.2479 110.676 88.1083 110.765 87.99C110.851 87.8693 110.965 87.7712 111.098 87.7042C111.23 87.6372 111.377 87.6031 111.525 87.605L153.345 87.835L160.57 87.885H161.35C161.487 87.8851 161.623 87.9183 161.745 87.9819C161.866 88.0454 161.971 88.1374 162.05 88.25C162.191 88.4674 162.248 88.7287 162.21 88.985C162.21 89.22 162.21 89.455 162.21 89.68C162.21 90.59 162.21 91.425 162.21 92.18C162.21 93.68 162.175 94.83 162.165 95.63C162.153 95.7838 162.097 95.9309 162.004 96.0541C161.911 96.1772 161.785 96.2712 161.64 96.325C161.545 96.3836 161.436 96.4148 161.325 96.415V96.415Z" fill="#E0E0E0"/>
<path d="M138.15 90.425H114.63V92.63H138.15V90.425Z" fill="#122750"/>
<path opacity="0.2" d="M138.15 90.425H114.63V92.63H138.15V90.425Z" fill="white"/>
<path d="M123.539 103.454L110.679 103.396L110.668 105.756L123.528 105.814L123.539 103.454Z" fill="#122750"/>
<path opacity="0.1" d="M123.539 103.454L110.679 103.396L110.668 105.756L123.528 105.814L123.539 103.454Z" fill="black"/>
<path d="M161 117.945C161.101 117.933 161.201 117.914 161.3 117.89C161.44 117.846 161.568 117.772 161.677 117.673C161.785 117.575 161.872 117.455 161.93 117.32C162.009 117.118 162.039 116.901 162.02 116.685C162.02 116.445 162.02 116.185 162.02 115.895C162.02 115.315 162.02 114.655 162.02 113.895V110.72C162.044 110.49 161.993 110.259 161.875 110.06C161.752 109.856 161.558 109.705 161.33 109.635C161.081 109.591 160.827 109.577 160.575 109.595H153.38L111.705 109.44C111.481 109.441 111.264 109.522 111.096 109.671C110.928 109.819 110.819 110.023 110.79 110.245C110.79 110.72 110.79 111.245 110.79 111.745C110.79 112.745 110.79 113.745 110.79 114.745C110.79 115.245 110.79 115.745 110.79 116.245C110.771 116.479 110.781 116.714 110.82 116.945C110.882 117.148 111.011 117.324 111.185 117.445C111.37 117.562 111.587 117.618 111.805 117.605H112.5H113.945L125.01 117.66L143.745 117.775L156.375 117.875L159.81 117.915H160.705H161.005H160.705H159.81H156.375H143.745L125 117.895L113.935 117.855H111.76C111.489 117.871 111.221 117.799 110.995 117.65C110.767 117.492 110.601 117.261 110.525 116.995C110.48 116.741 110.467 116.482 110.485 116.225C110.485 115.725 110.485 115.225 110.485 114.725C110.485 113.725 110.485 112.725 110.485 111.725C110.485 111.225 110.485 110.725 110.485 110.225C110.521 109.939 110.661 109.676 110.877 109.486C111.093 109.295 111.372 109.19 111.66 109.19L153.335 109.42L160.53 109.475C160.798 109.459 161.067 109.477 161.33 109.53C161.59 109.615 161.809 109.793 161.945 110.03C162.074 110.25 162.13 110.506 162.105 110.76C162.105 110.995 162.105 111.225 162.105 111.455C162.105 112.36 162.105 113.19 162.105 113.955C162.105 114.72 162.105 115.365 162.105 115.955C162.105 116.24 162.105 116.505 162.105 116.75C162.123 116.974 162.087 117.198 162 117.405C161.935 117.543 161.841 117.665 161.725 117.764C161.608 117.862 161.472 117.934 161.325 117.975C161.216 117.984 161.106 117.974 161 117.945V117.945Z" fill="#E0E0E0"/>
<path d="M123.442 125.919L110.583 125.86L110.572 128.22L123.432 128.279L123.442 125.919Z" fill="#122750"/>
<path opacity="0.1" d="M123.442 125.919L110.583 125.86L110.572 128.22L123.432 128.279L123.442 125.919Z" fill="black"/>
<path d="M160.9 140.4C161.001 140.388 161.101 140.37 161.2 140.345C161.339 140.301 161.467 140.228 161.575 140.13C161.684 140.033 161.771 139.913 161.83 139.78C161.908 139.578 161.939 139.361 161.92 139.145C161.92 138.9 161.92 138.645 161.92 138.35C161.92 137.775 161.92 137.11 161.92 136.35V133.175C161.944 132.945 161.893 132.714 161.775 132.515C161.648 132.315 161.455 132.166 161.23 132.095C160.981 132.049 160.727 132.034 160.475 132.05H153.28L111.605 131.895C111.381 131.895 111.164 131.977 110.996 132.125C110.828 132.274 110.719 132.478 110.69 132.7C110.69 133.2 110.69 133.7 110.69 134.2C110.69 135.2 110.69 136.2 110.69 137.2C110.69 137.7 110.69 138.2 110.69 138.7C110.671 138.932 110.681 139.165 110.72 139.395C110.78 139.599 110.909 139.776 111.085 139.895C111.268 140.015 111.486 140.071 111.705 140.055H113.88L124.945 140.115L143.68 140.23L156.31 140.33L159.745 140.37H160.64C160.84 140.37 160.94 140.37 160.94 140.37C160.94 140.37 160.84 140.37 160.64 140.37H159.745H156.31H143.68L124.945 140.315L113.88 140.27H111.705C111.434 140.288 111.165 140.216 110.94 140.065C110.712 139.907 110.546 139.676 110.47 139.41C110.425 139.156 110.412 138.897 110.43 138.64C110.43 138.14 110.43 137.64 110.43 137.14C110.43 136.14 110.43 135.14 110.43 134.14C110.43 133.64 110.43 133.14 110.43 132.615C110.465 132.329 110.604 132.067 110.819 131.876C111.034 131.686 111.312 131.58 111.6 131.58L153.275 131.81L160.47 131.865C160.738 131.849 161.007 131.867 161.27 131.92C161.53 132.005 161.749 132.183 161.885 132.42C162.014 132.64 162.07 132.896 162.045 133.15C162.045 133.385 162.045 133.62 162.045 133.845C162.045 134.75 162.045 135.58 162.045 136.345C162.045 137.11 162.045 137.755 162.045 138.345C162.045 138.63 162.045 138.895 162.045 139.14C162.064 139.364 162.028 139.589 161.94 139.795C161.875 139.933 161.781 140.055 161.664 140.154C161.548 140.252 161.412 140.324 161.265 140.365C161.148 140.405 161.022 140.417 160.9 140.4V140.4Z" fill="#E0E0E0"/>
<path d="M137.648 112.578L114.128 112.472L114.118 114.677L137.638 114.783L137.648 112.578Z" fill="#122750"/>
<path opacity="0.2" d="M137.648 112.578L114.128 112.472L114.118 114.677L137.638 114.783L137.648 112.578Z" fill="white"/>
<path d="M116.255 136.32C116.24 136.521 116.167 136.713 116.044 136.873C115.921 137.033 115.753 137.153 115.563 137.219C115.372 137.284 115.166 137.292 114.971 137.242C114.776 137.192 114.599 137.085 114.464 136.936C114.329 136.786 114.24 136.6 114.21 136.401C114.179 136.202 114.208 135.998 114.292 135.814C114.376 135.631 114.512 135.477 114.683 135.37C114.855 135.264 115.053 135.21 115.255 135.215C115.534 135.23 115.795 135.355 115.982 135.562C116.169 135.769 116.267 136.041 116.255 136.32V136.32Z" fill="#122750"/>
<path d="M119.44 136.335C119.45 136.476 119.43 136.617 119.383 136.751C119.336 136.884 119.262 137.006 119.166 137.109C119.069 137.213 118.953 137.295 118.823 137.351C118.693 137.408 118.554 137.437 118.412 137.437C118.271 137.437 118.131 137.408 118.002 137.351C117.872 137.295 117.755 137.213 117.659 137.109C117.563 137.006 117.489 136.884 117.441 136.751C117.394 136.617 117.375 136.476 117.385 136.335C117.375 136.194 117.394 136.053 117.441 135.919C117.489 135.786 117.563 135.664 117.659 135.561C117.755 135.457 117.872 135.375 118.002 135.319C118.131 135.262 118.271 135.233 118.412 135.233C118.554 135.233 118.693 135.262 118.823 135.319C118.953 135.375 119.069 135.457 119.166 135.561C119.262 135.664 119.336 135.786 119.383 135.919C119.43 136.053 119.45 136.194 119.44 136.335V136.335Z" fill="#122750"/>
<path d="M122.63 136.35C122.615 136.551 122.542 136.743 122.419 136.903C122.296 137.063 122.128 137.183 121.938 137.249C121.747 137.314 121.541 137.322 121.346 137.272C121.151 137.222 120.974 137.115 120.839 136.966C120.704 136.816 120.615 136.63 120.585 136.431C120.554 136.232 120.583 136.028 120.667 135.844C120.751 135.661 120.887 135.507 121.058 135.4C121.23 135.294 121.428 135.24 121.63 135.245C121.908 135.262 122.169 135.387 122.355 135.593C122.542 135.8 122.641 136.072 122.63 136.35Z" fill="#122750"/>
<path d="M125.815 136.365C125.8 136.566 125.727 136.759 125.604 136.918C125.481 137.078 125.313 137.198 125.123 137.264C124.932 137.329 124.726 137.337 124.531 137.287C124.336 137.237 124.159 137.13 124.024 136.981C123.889 136.831 123.8 136.645 123.77 136.446C123.739 136.247 123.768 136.043 123.852 135.859C123.936 135.676 124.072 135.522 124.244 135.415C124.415 135.309 124.613 135.255 124.815 135.26C125.093 135.277 125.354 135.402 125.541 135.608C125.727 135.815 125.826 136.087 125.815 136.365Z" fill="#122750"/>
<path d="M129 136.375C128.986 136.576 128.914 136.769 128.791 136.93C128.668 137.09 128.501 137.211 128.311 137.277C128.12 137.344 127.914 137.353 127.718 137.303C127.523 137.253 127.346 137.147 127.21 136.997C127.074 136.848 126.986 136.662 126.955 136.463C126.924 136.263 126.952 136.059 127.036 135.875C127.12 135.692 127.256 135.537 127.428 135.43C127.599 135.324 127.798 135.27 128 135.275C128.277 135.292 128.537 135.416 128.724 135.622C128.91 135.827 129.01 136.097 129 136.375Z" fill="#122750"/>
<path d="M132.19 136.39C132.176 136.59 132.104 136.782 131.983 136.942C131.862 137.102 131.696 137.223 131.507 137.291C131.318 137.358 131.113 137.368 130.918 137.321C130.723 137.273 130.546 137.169 130.409 137.022C130.272 136.875 130.181 136.691 130.147 136.493C130.113 136.296 130.138 136.092 130.218 135.908C130.299 135.724 130.431 135.567 130.599 135.457C130.767 135.348 130.964 135.289 131.165 135.29C131.447 135.3 131.713 135.422 131.905 135.628C132.097 135.834 132.199 136.108 132.19 136.39V136.39Z" fill="#122750"/>
<path d="M135.375 136.405C135.385 136.546 135.365 136.687 135.318 136.821C135.271 136.954 135.197 137.076 135.101 137.179C135.004 137.283 134.888 137.365 134.758 137.421C134.628 137.478 134.489 137.507 134.347 137.507C134.206 137.507 134.066 137.478 133.937 137.421C133.807 137.365 133.691 137.283 133.594 137.179C133.498 137.076 133.424 136.954 133.376 136.821C133.329 136.687 133.31 136.546 133.32 136.405C133.31 136.264 133.329 136.123 133.376 135.989C133.424 135.856 133.498 135.734 133.594 135.631C133.691 135.527 133.807 135.445 133.937 135.389C134.066 135.332 134.206 135.303 134.347 135.303C134.489 135.303 134.628 135.332 134.758 135.389C134.888 135.445 135.004 135.527 135.101 135.631C135.197 135.734 135.271 135.856 135.318 135.989C135.365 136.123 135.385 136.264 135.375 136.405Z" fill="#122750"/>
<path d="M138.56 136.42C138.546 136.62 138.474 136.812 138.353 136.972C138.232 137.132 138.066 137.254 137.877 137.321C137.688 137.388 137.483 137.398 137.288 137.351C137.093 137.303 136.916 137.199 136.779 137.052C136.642 136.905 136.551 136.721 136.517 136.524C136.483 136.326 136.508 136.122 136.588 135.938C136.669 135.754 136.801 135.597 136.969 135.487C137.138 135.378 137.334 135.32 137.535 135.32C137.817 135.33 138.083 135.452 138.275 135.658C138.467 135.864 138.57 136.138 138.56 136.42V136.42Z" fill="#122750"/>
<path d="M141.745 136.435C141.731 136.636 141.659 136.829 141.536 136.99C141.414 137.15 141.247 137.271 141.056 137.337C140.865 137.404 140.659 137.413 140.464 137.363C140.268 137.313 140.091 137.207 139.955 137.057C139.82 136.908 139.731 136.722 139.7 136.523C139.669 136.323 139.697 136.119 139.781 135.935C139.865 135.752 140.002 135.597 140.173 135.49C140.344 135.384 140.543 135.33 140.745 135.335C141.022 135.352 141.282 135.476 141.469 135.682C141.656 135.887 141.755 136.157 141.745 136.435V136.435Z" fill="#122750"/>
<g opacity="0.2">
<path d="M116.255 136.32C116.24 136.521 116.167 136.713 116.044 136.873C115.921 137.033 115.753 137.153 115.563 137.219C115.372 137.284 115.166 137.292 114.971 137.242C114.776 137.192 114.599 137.085 114.464 136.936C114.329 136.786 114.24 136.6 114.21 136.401C114.179 136.202 114.208 135.998 114.292 135.814C114.376 135.631 114.512 135.477 114.683 135.37C114.855 135.264 115.053 135.21 115.255 135.215C115.534 135.23 115.795 135.355 115.982 135.562C116.169 135.769 116.267 136.041 116.255 136.32V136.32Z" fill="white"/>
<path d="M119.44 136.335C119.45 136.476 119.43 136.617 119.383 136.751C119.336 136.884 119.262 137.006 119.166 137.109C119.069 137.213 118.953 137.295 118.823 137.351C118.693 137.408 118.554 137.437 118.412 137.437C118.271 137.437 118.131 137.408 118.002 137.351C117.872 137.295 117.755 137.213 117.659 137.109C117.563 137.006 117.489 136.884 117.441 136.751C117.394 136.617 117.375 136.476 117.385 136.335C117.375 136.194 117.394 136.053 117.441 135.919C117.489 135.786 117.563 135.664 117.659 135.561C117.755 135.457 117.872 135.375 118.002 135.319C118.131 135.262 118.271 135.233 118.412 135.233C118.554 135.233 118.693 135.262 118.823 135.319C118.953 135.375 119.069 135.457 119.166 135.561C119.262 135.664 119.336 135.786 119.383 135.919C119.43 136.053 119.45 136.194 119.44 136.335V136.335Z" fill="white"/>
<path d="M122.63 136.35C122.615 136.551 122.542 136.743 122.419 136.903C122.296 137.063 122.128 137.183 121.938 137.249C121.747 137.314 121.541 137.322 121.346 137.272C121.151 137.222 120.974 137.115 120.839 136.966C120.704 136.816 120.615 136.63 120.585 136.431C120.554 136.232 120.583 136.028 120.667 135.844C120.751 135.661 120.887 135.507 121.058 135.4C121.23 135.294 121.428 135.24 121.63 135.245C121.908 135.262 122.169 135.387 122.355 135.593C122.542 135.8 122.641 136.072 122.63 136.35Z" fill="white"/>
<path d="M125.815 136.365C125.8 136.566 125.727 136.758 125.604 136.918C125.481 137.078 125.313 137.198 125.123 137.264C124.932 137.329 124.726 137.337 124.531 137.287C124.336 137.237 124.159 137.13 124.024 136.981C123.889 136.831 123.8 136.645 123.77 136.446C123.739 136.247 123.768 136.043 123.852 135.859C123.936 135.676 124.072 135.522 124.244 135.415C124.415 135.309 124.613 135.255 124.815 135.26C125.093 135.277 125.354 135.402 125.541 135.608C125.727 135.815 125.826 136.087 125.815 136.365Z" fill="white"/>
<path d="M129 136.375C128.986 136.576 128.914 136.769 128.791 136.93C128.668 137.09 128.501 137.211 128.311 137.277C128.12 137.344 127.914 137.353 127.718 137.303C127.523 137.253 127.346 137.147 127.21 136.997C127.074 136.848 126.986 136.662 126.955 136.463C126.924 136.263 126.952 136.059 127.036 135.875C127.12 135.692 127.256 135.537 127.428 135.43C127.599 135.324 127.798 135.27 128 135.275C128.277 135.292 128.537 135.416 128.724 135.622C128.91 135.827 129.01 136.097 129 136.375Z" fill="white"/>
<path d="M132.19 136.39C132.176 136.59 132.104 136.782 131.983 136.942C131.862 137.102 131.696 137.223 131.507 137.291C131.318 137.358 131.113 137.368 130.918 137.321C130.723 137.273 130.546 137.169 130.409 137.022C130.272 136.875 130.181 136.691 130.147 136.493C130.113 136.296 130.138 136.092 130.218 135.908C130.299 135.724 130.431 135.567 130.599 135.457C130.767 135.348 130.964 135.289 131.165 135.29C131.447 135.3 131.713 135.422 131.905 135.628C132.097 135.834 132.199 136.108 132.19 136.39V136.39Z" fill="white"/>
<path d="M135.375 136.405C135.385 136.546 135.365 136.687 135.318 136.821C135.271 136.954 135.197 137.076 135.101 137.179C135.004 137.283 134.888 137.365 134.758 137.421C134.628 137.478 134.489 137.507 134.347 137.507C134.206 137.507 134.066 137.478 133.937 137.421C133.807 137.365 133.691 137.283 133.594 137.179C133.498 137.076 133.424 136.954 133.376 136.821C133.329 136.687 133.31 136.546 133.32 136.405C133.31 136.264 133.329 136.122 133.376 135.989C133.424 135.856 133.498 135.734 133.594 135.631C133.691 135.527 133.807 135.445 133.937 135.389C134.066 135.332 134.206 135.303 134.347 135.303C134.489 135.303 134.628 135.332 134.758 135.389C134.888 135.445 135.004 135.527 135.101 135.631C135.197 135.734 135.271 135.856 135.318 135.989C135.365 136.122 135.385 136.264 135.375 136.405Z" fill="white"/>
<path d="M138.56 136.42C138.546 136.62 138.474 136.812 138.353 136.972C138.232 137.132 138.066 137.253 137.877 137.321C137.688 137.388 137.483 137.398 137.288 137.35C137.093 137.303 136.916 137.199 136.779 137.052C136.642 136.905 136.551 136.721 136.517 136.523C136.483 136.325 136.508 136.122 136.588 135.938C136.669 135.754 136.801 135.597 136.969 135.487C137.138 135.378 137.334 135.319 137.535 135.32C137.817 135.33 138.083 135.452 138.275 135.658C138.467 135.864 138.57 136.138 138.56 136.42V136.42Z" fill="white"/>
<path d="M141.745 136.435C141.731 136.636 141.659 136.829 141.536 136.99C141.414 137.15 141.247 137.271 141.056 137.337C140.865 137.404 140.659 137.413 140.464 137.363C140.268 137.313 140.091 137.207 139.955 137.057C139.82 136.908 139.731 136.722 139.7 136.523C139.669 136.323 139.697 136.119 139.781 135.935C139.865 135.752 140.002 135.597 140.173 135.49C140.344 135.384 140.543 135.33 140.745 135.335C141.022 135.352 141.282 135.476 141.469 135.682C141.656 135.887 141.755 136.157 141.745 136.435V136.435Z" fill="white"/>
</g>
<path d="M137.22 64.255C137.567 64.102 137.862 63.8503 138.067 63.5311C138.273 63.212 138.38 62.8395 138.375 62.46C138.388 62.2133 138.35 61.9665 138.265 61.7348C138.179 61.503 138.048 61.291 137.878 61.1119C137.708 60.9327 137.503 60.7899 137.276 60.6924C137.049 60.5949 136.804 60.5446 136.557 60.5446C136.31 60.5446 136.066 60.5949 135.839 60.6924C135.612 60.7899 135.407 60.9327 135.237 61.1119C135.067 61.291 134.935 61.503 134.85 61.7348C134.764 61.9665 134.727 62.2133 134.74 62.46C134.732 62.8433 134.838 63.2202 135.045 63.5433C135.251 63.8663 135.549 64.1209 135.9 64.275C133.1 64.695 133.225 67.735 133.225 67.735L139.845 67.765C139.845 67.765 140 64.67 137.22 64.255Z" fill="#122750"/>
<path opacity="0.1" d="M137.22 64.255C137.567 64.102 137.862 63.8503 138.067 63.5311C138.273 63.212 138.38 62.8395 138.375 62.46C138.388 62.2133 138.35 61.9665 138.265 61.7348C138.179 61.503 138.048 61.291 137.878 61.1119C137.708 60.9327 137.503 60.7899 137.276 60.6924C137.049 60.5949 136.804 60.5446 136.557 60.5446C136.31 60.5446 136.066 60.5949 135.839 60.6924C135.612 60.7899 135.407 60.9327 135.237 61.1119C135.067 61.291 134.935 61.503 134.85 61.7348C134.764 61.9665 134.727 62.2133 134.74 62.46C134.732 62.8433 134.838 63.2202 135.045 63.5433C135.251 63.8663 135.549 64.1209 135.9 64.275C133.1 64.695 133.225 67.735 133.225 67.735L139.845 67.765C139.845 67.765 140 64.67 137.22 64.255Z" fill="black"/>
<path d="M147.977 69.7257L124.382 69.6187L124.37 72.4386L147.964 72.5457L147.977 69.7257Z" fill="#122750"/>
<path opacity="0.2" d="M147.977 69.7257L124.382 69.6187L124.37 72.4386L147.964 72.5457L147.977 69.7257Z" fill="white"/>
<path d="M61.2351 84.34H61.0001L60.3201 84.39C59.9521 84.4121 59.5862 84.4606 59.2251 84.535C58.9912 84.5678 58.7593 84.6129 58.5301 84.67L57.7551 84.885C56.436 85.2897 55.1915 85.9061 54.0701 86.71C52.5886 87.7854 51.3514 89.1622 50.4401 90.75C49.9045 91.6653 49.4782 92.6403 49.1701 93.655C48.8464 94.7579 48.66 95.8965 48.6151 97.045C48.5853 97.6483 48.5953 98.253 48.6451 98.855C48.6451 99.16 48.7301 99.465 48.7701 99.775C48.8038 100.088 48.8623 100.397 48.9451 100.7C49.3947 102.706 50.307 104.58 51.6092 106.171C52.9113 107.762 54.5673 109.027 56.4451 109.865C57.8042 110.451 59.2608 110.779 60.7401 110.83C62.268 110.914 63.7974 110.695 65.2401 110.185L65.6801 110.02H65.7401L65.7901 110.05L72.0951 113.25L71.9101 113.41C71.2351 111.32 70.5851 109.295 69.9551 107.35V107.275L70.0101 107.22C71.5396 105.679 72.675 103.793 73.3201 101.72C73.9044 99.825 74.0749 97.8266 73.8201 95.86C73.5935 94.1123 73.0315 92.4247 72.1651 90.89C71.4183 89.5717 70.4548 88.3885 69.3151 87.39C68.3748 86.5997 67.3342 85.9373 66.2201 85.42C65.3772 85.0564 64.4993 84.78 63.6001 84.595L62.6001 84.43L61.8751 84.375L61.4351 84.345H61.2851C61.335 84.3395 61.3853 84.3395 61.4351 84.345H61.8801L62.6051 84.375L63.6051 84.52C64.5155 84.6915 65.4053 84.9579 66.2601 85.315C67.3933 85.8261 68.4527 86.487 69.4101 87.28C70.5707 88.274 71.5546 89.4574 72.3201 90.78C73.2111 92.3312 73.7903 94.0416 74.0251 95.815C74.301 97.812 74.1424 99.845 73.5601 101.775C72.9108 103.891 71.7578 105.818 70.2001 107.39L70.2301 107.26C70.8601 109.205 71.5151 111.23 72.1951 113.315L72.2901 113.62L72.0051 113.475L65.7001 110.28H65.8101L65.3601 110.445C63.8896 110.962 62.3319 111.187 60.7751 111.105C59.264 111.047 57.7768 110.708 56.3901 110.105C53.745 108.972 51.5442 107.003 50.1251 104.5C49.4721 103.344 48.9952 102.097 48.7101 100.8C48.6321 100.489 48.5736 100.173 48.5351 99.855C48.4951 99.54 48.4301 99.23 48.4151 98.92C48.2798 97.1409 48.4678 95.3521 48.9701 93.64C49.2859 92.6113 49.724 91.6242 50.2751 90.7C51.2082 89.0978 52.4711 87.7122 53.9801 86.635C55.1199 85.829 56.3854 85.2174 57.7251 84.825L58.5101 84.625C58.7412 84.5714 58.9748 84.5297 59.2101 84.5C59.5749 84.4325 59.9443 84.3923 60.3151 84.38L61.0001 84.355C61.078 84.3445 61.1565 84.3395 61.2351 84.34Z" fill="#122750"/>
<path d="M64.0851 96H63.1601L61.1601 93.19V91.345C61.1601 91.345 59.7301 91.255 59.9001 93.67C60.0701 96.085 59.9001 95.47 59.9001 95.47C59.9001 95.47 56.8651 95.47 56.6151 95.745C56.3651 96.02 56.3501 98.95 56.3151 100.585C56.2959 100.979 56.409 101.368 56.6364 101.691C56.8638 102.013 57.1924 102.251 57.5701 102.365C57.6759 102.394 57.7852 102.409 57.8951 102.41C58.6551 102.41 62.5201 101.795 62.5201 101.795H64.1151L64.0851 96Z" fill="#122750"/>
<path d="M66.7301 95.505L66.1601 101.825H64.5801V95.635L66.7301 95.505Z" fill="#122750"/>
<path d="M85.5752 224.17V219.895L77.9102 219.84L77.8452 226.305L78.3202 226.34C80.4352 226.475 89.0802 226.675 90.5002 226.235C92.0802 225.745 85.5752 224.17 85.5752 224.17Z" fill="#122750"/>
<path d="M90.6801 225.835C90.6801 225.905 87.8101 225.965 84.2751 225.965C80.7401 225.965 77.8701 225.905 77.8701 225.835C77.8701 225.765 80.7401 225.705 84.2751 225.705C87.8101 225.705 90.6801 225.765 90.6801 225.835Z" fill="#263238"/>
<path d="M85.7101 225.045C85.6451 225.01 85.7101 224.785 85.8651 224.545C86.0201 224.305 86.2301 224.205 86.2801 224.255C86.3301 224.305 86.2251 224.495 86.0751 224.7C85.9251 224.905 85.7751 225.08 85.7101 225.045Z" fill="#263238"/>
<path d="M86.2002 225.325C86.1302 225.325 86.1652 225.045 86.3152 224.78C86.4652 224.515 86.6652 224.355 86.7202 224.395C86.7752 224.435 86.6852 224.66 86.5452 224.895C86.4052 225.13 86.2652 225.35 86.2002 225.325Z" fill="#263238"/>
<path d="M80.1798 225.815C80.1498 225.815 80.0348 225.725 79.8698 225.535C79.6684 225.291 79.444 225.066 79.1998 224.865C78.9596 224.673 78.6735 224.547 78.3698 224.5C78.1348 224.47 77.9848 224.5 77.9698 224.47C77.9548 224.44 78.0998 224.335 78.3748 224.315C78.7377 224.307 79.0918 224.428 79.3748 224.655C79.64 224.871 79.8636 225.134 80.0348 225.43C80.1498 225.65 80.2098 225.795 80.1798 225.815Z" fill="#263238"/>
<path d="M85.7351 224.24C85.7701 224.3 85.6401 224.45 85.4201 224.53C85.2001 224.61 85.0051 224.58 84.9951 224.53C84.9851 224.48 85.1401 224.375 85.3301 224.305C85.5201 224.235 85.6951 224.18 85.7351 224.24Z" fill="#263238"/>
<path d="M85.6149 223.825C85.6149 223.9 85.4149 223.96 85.1549 223.965C84.8949 223.97 84.6899 223.91 84.6949 223.84C84.6999 223.77 84.9049 223.705 85.1549 223.7C85.4049 223.695 85.6049 223.755 85.6149 223.825Z" fill="#263238"/>
<path d="M104.45 224.17V219.895L96.7852 219.84L96.7202 226.24L97.1952 226.275C99.3102 226.41 107.96 226.675 109.375 226.235C110.955 225.745 104.45 224.17 104.45 224.17Z" fill="#122750"/>
<path d="M109.555 225.845C109.555 225.915 106.69 225.975 103.15 225.975C99.61 225.975 96.75 225.915 96.75 225.845C96.75 225.775 99.615 225.715 103.15 225.715C106.685 225.715 109.555 225.775 109.555 225.845Z" fill="#263238"/>
<path d="M104.585 225.045C104.525 225.01 104.585 224.785 104.74 224.545C104.895 224.305 105.105 224.205 105.155 224.255C105.205 224.305 105.1 224.495 104.95 224.7C104.8 224.905 104.65 225.08 104.585 225.045Z" fill="#263238"/>
<path d="M105.075 225.325C105.01 225.325 105.04 225.045 105.195 224.78C105.35 224.515 105.545 224.355 105.6 224.395C105.655 224.435 105.56 224.66 105.42 224.895C105.28 225.13 105.145 225.35 105.075 225.325Z" fill="#263238"/>
<path d="M99.0548 225.815C99.0248 225.815 98.9148 225.725 98.7448 225.535C98.5434 225.291 98.319 225.066 98.0748 224.865C97.8346 224.673 97.5485 224.547 97.2448 224.5C97.0148 224.47 96.8598 224.5 96.8448 224.47C96.8298 224.44 96.9748 224.335 97.2498 224.315C97.6127 224.307 97.9668 224.428 98.2498 224.655C98.5164 224.87 98.7402 225.133 98.9098 225.43C99.0248 225.65 99.0848 225.795 99.0548 225.815Z" fill="#263238"/>
<path d="M104.61 224.24C104.645 224.3 104.515 224.45 104.295 224.53C104.075 224.61 103.88 224.58 103.87 224.53C103.86 224.48 104.015 224.375 104.205 224.305C104.395 224.235 104.57 224.18 104.61 224.24Z" fill="#263238"/>
<path d="M104.5 223.825C104.5 223.9 104.3 223.96 104.04 223.965C103.78 223.97 103.58 223.91 103.585 223.84C103.59 223.77 103.79 223.705 104.04 223.7C104.29 223.695 104.5 223.755 104.5 223.825Z" fill="#263238"/>
<path d="M132.69 97.22C132.49 97.015 131.995 97.115 131.995 97.115C132.045 96.8272 132.045 96.5329 131.995 96.245C131.905 95.965 131.275 96.02 131.275 96.02C131.246 95.7843 131.246 95.5458 131.275 95.31C131.28 95.2578 131.269 95.2052 131.243 95.1596C131.217 95.114 131.177 95.0774 131.13 95.055C130.832 94.9335 130.512 94.8756 130.19 94.885C129.805 94.61 131.365 92.425 131.945 91.725C132.525 91.025 132.42 90.48 131.905 90.48C131.55 90.48 129.73 92.58 129.17 93.285C128.61 93.99 127.125 95.95 127.075 94.385C127.025 92.82 126.395 91.64 126 91.44C125.605 91.24 125.185 91.71 125.4 92.145C125.589 92.6392 125.707 93.1577 125.75 93.685C125.804 94.1051 125.786 94.5313 125.695 94.945C125.529 95.7148 125.304 96.4704 125.02 97.205H124.98C124.98 97.205 114.07 107.67 113.28 108.415C112.575 109.085 98.395 107.62 95.55 107.32C94.5832 107.179 93.607 107.112 92.63 107.12C91.395 107.175 91.175 107.35 89.945 107.365C86.8387 107.4 83.7396 107.672 80.675 108.18C79.2873 108.416 77.9911 109.028 76.9277 109.951C75.8644 110.873 75.0747 112.07 74.645 113.41C71.78 122.36 65.29 143.545 64.145 155.445C63.2798 157.014 62.4986 158.628 61.805 160.28C61 162.47 61.195 162.545 61.465 162.595C62.195 162.73 63.025 158.8 63.335 159.75C63.645 160.7 61.76 164.435 62.525 164.545C63.525 164.685 64.32 160.545 64.415 160.215C64.51 159.885 65.005 159.99 64.915 160.3C64.77 160.74 63.365 165.405 64.345 165.555C64.885 165.635 64.945 164.65 64.945 164.65C64.945 164.65 65.945 160.185 66.4 160.275C66.855 160.365 66.37 163 66.14 163.88C65.91 164.76 66.23 165.205 66.7 164.99C67.02 164.84 67.785 162.165 67.995 161.295C68.205 160.425 68.73 158.015 69.435 159.41C70.14 160.805 71.21 161.615 71.65 161.635C71.7491 161.624 71.8426 161.583 71.9183 161.518C71.9941 161.453 72.0486 161.367 72.075 161.27C72.1013 161.174 72.0983 161.072 72.0662 160.978C72.0341 160.883 71.9745 160.8 71.895 160.74C71.5165 160.37 71.1917 159.95 70.93 159.49C70.6967 159.132 70.5275 158.736 70.43 158.32C70.2285 157.491 70.1112 156.643 70.08 155.79L70 155.29C71.12 149.745 74.345 133.47 79 123.075L80.91 127.005L81.74 129.915L76.65 142.48L98.36 142.195L95.12 129.725L99.055 116.725C103.31 116.82 114.235 116.98 116.055 116.155C118.345 115.155 130.19 100.195 130.19 100.195C130.962 99.5951 131.701 98.9542 132.405 98.275C132.405 98.275 133.125 97.67 132.69 97.22Z" fill="#FFBE9D"/>
<path d="M75.6951 133.195C76.3251 131.045 79.5601 120.415 79.5601 120.415C79.5601 120.415 81.1501 129.08 80.7301 130.125C80.3437 131.02 79.8873 131.882 79.3651 132.705C75.6951 138.29 76.1751 141.085 76.1751 141.085L98.3501 140.41C98.4001 137.31 96.5651 130.1 96.1851 128.95C95.8051 127.8 97.0701 124.035 97.0701 124.035C97.0701 124.035 99.5701 121.49 99.4801 120.18C99.4326 119.003 99.2871 117.833 99.0451 116.68L112.545 117.18L112.12 108.03L92.7301 106.09C92.0551 107.995 85.9501 107.06 85.9501 107.06C79.3601 107.28 78.9501 108.49 76.2101 110.62C73.4701 112.75 68.9351 131.03 68.9351 131.03L75.6951 133.195Z" fill="#122750"/>
<path d="M88.8049 131.03C88.4206 131.099 88.0292 131.119 87.6399 131.09C86.9149 131.09 85.9199 131.04 84.8249 130.93C83.7299 130.82 82.7399 130.665 82.0349 130.525C81.6462 130.475 81.265 130.378 80.8999 130.235C81.2908 130.235 81.6809 130.272 82.0649 130.345C82.7749 130.435 83.7599 130.56 84.8499 130.67C85.9399 130.78 86.9299 130.855 87.6449 130.905C88.0346 130.91 88.4231 130.952 88.8049 131.03V131.03Z" fill="#263238"/>
<path d="M90.325 129.145C89.9406 129.333 89.5341 129.473 89.115 129.56C87.1201 130.084 85.0621 130.328 83 130.285C82.5733 130.299 82.1465 130.259 81.73 130.165C82.1511 130.112 82.5756 130.09 83 130.1C83.785 130.075 84.865 130.02 86.055 129.88C87.245 129.74 88.305 129.54 89.055 129.38C89.4716 129.269 89.8962 129.19 90.325 129.145V129.145Z" fill="#263238"/>
<path d="M97.7851 120.735C97.7749 121.116 97.723 121.495 97.6301 121.865C97.5001 122.56 97.3001 123.51 97.0451 124.55C96.7901 125.59 96.5451 126.55 96.3251 127.2C96.2366 127.572 96.1057 127.933 95.9351 128.275C95.9629 127.895 96.0334 127.519 96.1451 127.155C96.3351 126.375 96.5501 125.475 96.7901 124.49C97.0301 123.505 97.2601 122.605 97.4501 121.825C97.5177 121.45 97.6302 121.084 97.7851 120.735V120.735Z" fill="#263238"/>
<path d="M75.93 131.92C74.7733 131.741 73.6317 131.476 72.515 131.125C71.374 130.858 70.2542 130.507 69.165 130.075C70.3212 130.257 71.4626 130.522 72.58 130.87C73.7214 131.136 74.8412 131.487 75.93 131.92V131.92Z" fill="#263238"/>
<path d="M99.2848 116.57C99.0961 116.603 98.9034 116.603 98.7147 116.57C98.1925 116.516 97.6797 116.394 97.1898 116.205C96.3718 115.898 95.6272 115.423 95.0038 114.81C94.3803 114.198 93.8919 113.462 93.5697 112.65C93.2137 111.757 93.0617 110.795 93.1247 109.835C93.147 109.043 93.3838 108.273 93.8097 107.605C94.1094 107.155 94.5569 106.824 95.0747 106.67C95.2131 106.632 95.3562 106.613 95.4997 106.615C95.5997 106.615 95.6497 106.615 95.6497 106.615C95.6497 106.615 95.4398 106.615 95.1048 106.75C94.6296 106.926 94.2267 107.255 93.9597 107.685C93.2797 108.755 93.0898 110.71 93.8148 112.535C94.1522 113.396 94.6804 114.168 95.3597 114.795C95.9164 115.308 96.5575 115.721 97.2547 116.015C97.9091 116.274 98.5898 116.46 99.2848 116.57V116.57Z" fill="#263238"/>
<path d="M110.94 117C110.815 115.467 110.775 113.928 110.82 112.39C110.781 110.854 110.828 109.316 110.96 107.785C111.085 109.317 111.125 110.854 111.08 112.39C111.122 113.928 111.075 115.467 110.94 117V117Z" fill="#263238"/>
<path d="M92.6 106.65C92.655 105.535 92.77 104.275 92.77 104.275C92.77 104.275 95.53 103.97 95.695 101.12C95.86 98.27 95.695 91.695 95.695 91.695L90.695 89.135L85.145 93.5L86 107.75L91.09 108.075C91.4791 108.086 91.8565 107.942 92.1396 107.675C92.4227 107.408 92.5883 107.039 92.6 106.65V106.65Z" fill="#FFBE9D"/>
<path d="M93.0948 98.865C93.0948 98.865 93.0948 98.92 93.0498 98.985C93.0126 99.0322 92.9645 99.0696 92.9096 99.094C92.8547 99.1183 92.7947 99.129 92.7348 99.125C92.4148 99.125 92.1048 98.755 91.9948 98.325C91.9425 98.1166 91.9425 97.8985 91.9948 97.69C92.005 97.5991 92.0379 97.5121 92.0902 97.437C92.1426 97.3619 92.2129 97.3011 92.2948 97.26C92.362 97.2323 92.4375 97.2323 92.5048 97.26C92.5546 97.2848 92.595 97.3252 92.6198 97.375C92.6548 97.46 92.6198 97.515 92.6198 97.51C92.6198 97.505 92.6198 97.46 92.5698 97.41C92.5436 97.3742 92.5052 97.3493 92.4618 97.3401C92.4185 97.3309 92.3732 97.338 92.3348 97.36C92.2734 97.3971 92.2225 97.4491 92.1866 97.5112C92.1508 97.5732 92.1312 97.6434 92.1298 97.715C92.0877 97.901 92.0877 98.094 92.1298 98.28C92.2298 98.67 92.4998 98.985 92.7398 99.015C92.7867 99.0214 92.8345 99.018 92.8801 99.0051C92.9257 98.9922 92.9681 98.9701 93.0048 98.94C93.0648 98.9 93.0848 98.86 93.0948 98.865Z" fill="#EB996E"/>
<path d="M97.4098 90.155C97.0248 88.845 95.6298 88.195 94.3598 87.835C92.4248 87.285 90.3348 87.045 88.4448 87.74C86.5548 88.435 84.2848 89.655 84.2848 91.74C83.1698 91.65 82.5298 92.625 82.0898 93.835C81.8085 94.5722 81.64 95.3476 81.5898 96.135V96.135C81.4498 98.865 80.6848 102.635 78.9148 104.635C77.9148 105.75 76.5298 106.52 75.9598 107.91C75.4598 109.115 75.7198 110.545 75.2548 111.765C74.8398 112.84 73.9248 113.605 73.2548 114.54C72.5723 115.601 72.1705 116.818 72.0875 118.076C72.0044 119.335 72.2426 120.594 72.7798 121.735C73.3209 122.847 74.0827 123.837 75.0188 124.645C75.955 125.453 77.0458 126.062 78.2248 126.435C80.5604 127.146 83.0509 127.17 85.3998 126.505C87.1627 126.083 88.8072 125.268 90.2098 124.12C91.645 122.948 92.6307 121.316 92.9998 119.5C93.3548 117.46 92.7848 115.385 92.3598 113.355C91.0298 106.94 91.4098 106.605 93.0898 100.65C93.1298 100.545 93.1498 100.435 93.1798 100.33C93.2098 100.225 93.2248 100.175 93.2448 100.095C93.2926 99.8596 93.3177 99.6202 93.3198 99.38C93.0745 99.4713 92.8081 99.4906 92.5522 99.4357C92.2962 99.3807 92.0612 99.2539 91.8748 99.07C91.6881 98.874 91.5578 98.631 91.498 98.3669C91.4381 98.1028 91.4508 97.8275 91.5348 97.57C91.6528 97.2885 91.8286 97.0348 92.0508 96.8255C92.273 96.6162 92.5367 96.4559 92.8248 96.355C93.3798 96.125 93.9748 96.005 94.5198 95.75C95.6748 95.2 96.4748 94.06 97.0198 92.865C97.4679 92.0368 97.6062 91.076 97.4098 90.155V90.155Z" fill="#263238"/>
<path d="M93.295 99C93.4007 99.1561 93.4879 99.3239 93.555 99.5C93.705 99.815 93.905 100.26 94.125 100.775L94.165 100.87H94.06L93.56 100.915C93.215 100.915 92.925 100.98 92.585 100.975C92.5554 100.968 92.528 100.954 92.5052 100.934C92.4825 100.914 92.4652 100.889 92.455 100.86C92.4401 100.815 92.4401 100.765 92.455 100.72C92.4666 100.653 92.4816 100.586 92.5 100.52L92.59 100.165C92.6352 99.9282 92.7056 99.6969 92.8 99.475C92.7907 99.7164 92.7555 99.9561 92.695 100.19L92.625 100.545C92.6 100.665 92.555 100.85 92.625 100.835C92.875 100.835 93.23 100.78 93.56 100.76L94.06 100.715L93.995 100.825C93.78 100.325 93.6 99.855 93.495 99.53C93.4029 99.364 93.3355 99.1855 93.295 99V99Z" fill="#122750"/>
<path d="M76.1748 141.085L98.3498 140.41L108 178.08L106.225 221.29H94.4998L95.9348 179L87.3598 152.775L88.6798 222.965L76.8298 223.14L75.5848 157.165C75.5298 155.33 74.9298 151.195 75.1548 149.375L76.1748 141.085Z" fill="#263238"/>
<path d="M90.3101 153.31C89.9471 153.333 89.5827 153.311 89.2251 153.245C88.5551 153.165 87.6401 153.025 86.6351 152.825C85.6301 152.625 84.7301 152.395 84.0801 152.21C83.7326 152.134 83.3965 152.013 83.0801 151.85C83.0801 151.775 84.7101 152.165 86.7101 152.57C88.7101 152.975 90.3201 153.235 90.3101 153.31Z" fill="#455A64"/>
<path d="M106.105 218.92C106.105 218.99 103.45 219.05 100.175 219.05C96.8998 219.05 94.2397 218.99 94.2397 218.92C94.2397 218.85 96.8948 218.79 100.175 218.79C103.455 218.79 106.105 218.845 106.105 218.92Z" fill="#455A64"/>
<path d="M88.5751 221.14C88.5751 221.215 85.9951 221.27 82.8151 221.27C79.6351 221.27 77.0601 221.215 77.0601 221.14C77.0601 221.065 79.6401 221.01 82.8151 221.01C85.9901 221.01 88.5751 221.07 88.5751 221.14Z" fill="#455A64"/>
<path d="M87.0448 220.96C86.9748 220.96 86.6648 205.625 86.3498 186.71C86.0348 167.795 85.8498 152.45 85.9148 152.45C85.9798 152.45 86.2998 167.78 86.6098 186.705C86.9198 205.63 87.1198 220.96 87.0448 220.96Z" fill="#455A64"/>
<path d="M104.53 218.92C104.525 218.852 104.525 218.783 104.53 218.715V218.115C104.53 217.575 104.57 216.8 104.6 215.815C104.67 213.815 104.77 210.91 104.895 207.35C105.165 200.19 105.545 190.32 105.96 179.425C105.96 179.32 105.96 179.22 105.96 179.13V179.165C103.335 168.665 100.96 159.135 99.2352 152.24L97.2352 144.085C97.0052 143.13 96.8302 142.385 96.7052 141.865C96.6452 141.62 96.6052 141.43 96.5702 141.285C96.5507 141.22 96.5389 141.153 96.5352 141.085C96.5611 141.148 96.5812 141.213 96.5952 141.28C96.6352 141.42 96.6851 141.61 96.7551 141.85C96.8901 142.35 97.0852 143.11 97.3352 144.06C97.8352 145.99 98.5402 148.77 99.4202 152.195C101.16 159.085 103.56 168.59 106.22 179.105V179.14C106.22 179.23 106.22 179.335 106.22 179.435C105.775 190.33 105.37 200.195 105.075 207.355C104.92 210.92 104.79 213.805 104.7 215.815C104.65 216.815 104.61 217.575 104.585 218.115C104.585 218.37 104.555 218.57 104.55 218.715C104.551 218.784 104.544 218.853 104.53 218.92V218.92Z" fill="#455A64"/>
<path d="M100.705 178.25C99.8627 178.527 98.9951 178.72 98.1149 178.825C97.0349 179.01 96.1149 179.14 95.6999 179.16V179.06C95.8349 179.1 95.9049 179.125 95.9049 179.145C95.9049 179.165 95.8199 179.145 95.6799 179.145H95.3799L95.6799 179.055C96.0699 178.94 96.9899 178.75 98.0699 178.555C98.9361 178.367 99.8187 178.265 100.705 178.25Z" fill="#455A64"/>
<path d="M100.5 179.685C99.7199 179.721 98.9384 179.686 98.1648 179.58C97.3838 179.564 96.6058 179.479 95.8398 179.325C97.4024 179.198 98.9754 179.319 100.5 179.685V179.685Z" fill="#455A64"/>
<path opacity="0.2" d="M76.0801 141.88C76.3427 142.217 76.6735 142.495 77.0508 142.696C77.4282 142.897 77.8436 143.016 78.2701 143.045C79.1632 143.151 80.0665 143.134 80.9551 142.995C86.6801 142.36 92.7451 141.775 98.3501 140.41C91.0951 140.815 83.4301 140.68 76.1751 141.085L76.1001 141.705" fill="black"/>
<g opacity="0.2">
<path d="M83.5552 152.105L87.6452 167.975L87.3602 152.775L83.5552 152.105Z" fill="black"/>
</g>
</svg>
