<svg width="25" height="25" viewBox="0 0 25 25" fill="none" xmlns="http://www.w3.org/2000/svg">
<g clip-path="url(#clip0_1322_6297)">
<path d="M12.5 15.4918C10.8432 15.4918 9.5 16.835 9.5 18.4918V24.4918H15.5V18.4918C15.5 16.835 14.1568 15.4918 12.5 15.4918Z" fill="white"/>
<path d="M17.5 18.4923V24.4923H21.5C23.1568 24.4923 24.5 23.1491 24.5 21.4923V12.3713C24.5002 11.8518 24.2983 11.3525 23.937 10.9793L15.439 1.79224C13.9396 0.169899 11.4089 0.0702896 9.78655 1.56973C9.70949 1.64098 9.63523 1.71518 9.56403 1.79224L1.08102 10.9763C0.708734 11.3511 0.499859 11.858 0.5 12.3863V21.4923C0.5 23.1491 1.84316 24.4923 3.5 24.4923H7.49998V18.4923C7.51869 15.7654 9.72027 13.5387 12.3784 13.4746C15.1255 13.4083 17.4791 15.673 17.5 18.4923Z" fill="white"/>
<path d="M12.5 15.4918C10.8432 15.4918 9.5 16.835 9.5 18.4918V24.4918H15.5V18.4918C15.5 16.835 14.1568 15.4918 12.5 15.4918Z" fill="white"/>
</g>
<defs>
<clipPath id="clip0_1322_6297">
<rect width="24" height="24" fill="white" transform="translate(0.5 0.5)"/>
</clipPath>
</defs>
</svg>
